<svg width="300" height="300" viewBox="0 0 300 300" fill="none" xmlns="http://www.w3.org/2000/svg">
<path d="M30 0C13.4315 3.86556e-06 0 13.4315 0 30V200C0 255.228 44.7715 300 100 300H270C286.569 300 300 286.569 300 270V30C300 13.4315 286.569 2.41598e-07 270 0H30ZM145.07 29.1426C146.01 23.5884 153.99 23.5884 154.93 29.1426L165.092 89.2139C165.765 93.1942 170.635 94.7763 173.52 91.9521L217.05 49.3271C221.075 45.3857 227.531 50.076 225.026 55.1221L197.938 109.693C196.144 113.31 199.154 117.452 203.147 116.862L263.419 107.965C268.992 107.142 271.458 114.732 266.466 117.342L212.475 145.569C208.897 147.44 208.897 152.56 212.475 154.431L266.466 182.658C271.458 185.268 268.992 192.858 263.419 192.035L203.147 183.138C199.154 182.548 196.144 186.69 197.938 190.307L225.026 244.878C227.531 249.924 221.075 254.614 217.05 250.673L173.526 208.054C170.641 205.228 165.769 206.813 165.098 210.796L160.633 237.303C159.954 241.335 154.761 243.127 151.443 240.735C144.824 235.964 134.207 229.831 121 227.5C112.318 225.968 102.201 227.957 94.3799 230.271C89.9038 231.594 85.3298 226.78 87.3008 222.549L102.394 190.154C104.075 186.546 101.069 182.514 97.1309 183.096L36.5811 192.035C31.0083 192.858 28.5423 185.268 33.5342 182.658L87.5254 154.431C91.1026 152.56 91.1026 147.44 87.5254 145.569L33.5342 117.342C28.5423 114.732 31.0083 107.142 36.5811 107.965L96.8525 116.862C100.846 117.452 103.856 113.31 102.062 109.693L74.9736 55.1221C72.4691 50.076 78.9251 45.3857 82.9502 49.3271L126.48 91.9521C129.365 94.7763 134.235 93.1942 134.908 89.2139L145.07 29.1426Z" fill="#486284"/>
</svg>
